<svg width="100%" height="100%" viewBox="0 0 811 810" version="1.1" xmlns="http://www.w3.org/2000/svg" xml:space="preserve" style="fill-rule:evenodd;clip-rule:evenodd;stroke-linejoin:round;stroke-miterlimit:2;">
    <g>
        <g>
            <path d="M806.012,538.5l-0,267c-0,-0 -213.578,-0 -267,-0l-0,-90.739c0.796,-7.552 5.653,-14.156 12.773,-17.116c7.778,-3.234 16.734,-1.487 22.771,4.471c7.566,7.353 17.888,11.884 29.26,11.884c23.18,0 42,-18.82 42,-42c0,-23.18 -18.82,-42 -42,-42c-11.38,0 -21.71,4.539 -29.191,11.928c-6.015,5.982 -15.038,7.757 -22.871,4.501c-6.94,-2.886 -11.738,-9.219 -12.742,-16.527l-0,-91.4c19.675,0.004 59.51,0.02 88.538,0.078c8.452,0 16.073,5.085 19.317,12.888c3.234,7.779 1.487,16.735 -4.471,22.772c-7.353,7.566 -11.884,17.888 -11.884,29.26c-0,23.18 18.819,42 42,42c23.18,-0 42,-18.82 42,-42c-0,-11.38 -4.539,-21.71 -11.928,-29.191c-5.982,-6.015 -7.758,-15.038 -4.501,-22.871c3.257,-7.833 10.906,-12.937 19.389,-12.938l88.54,0Zm-4,4l-0,259.005c-0.621,-0.003 -1.299,-0.005 -2.034,-0.005c-34.17,-0 -203.755,-0 -256.966,-0c-0,-0 -0,-86.517 -0,-86.517c0.71,-6.03 4.614,-11.278 10.308,-13.645c6.295,-2.617 13.541,-1.196 18.427,3.625c0.007,0.007 0.014,0.014 0.022,0.022c8.286,8.052 19.591,13.015 32.047,13.015c25.388,0 46,-20.612 46,-46c0,-25.388 -20.612,-46 -46,-46c-12.477,0 -23.8,4.981 -32.002,13.082c-0.003,0.003 -0.007,0.006 -0.01,0.01c-4.869,4.842 -12.173,6.28 -18.514,3.643c-5.536,-2.301 -9.389,-7.313 -10.278,-13.119c-0,-0.002 -0,-87.113 -0,-87.113c20.708,0.005 57.355,0.023 84.53,0.077c0.003,0 0.006,0 0.008,0c6.836,0 13,4.113 15.624,10.424c2.617,6.295 1.196,13.541 -3.625,18.427c-0.007,0.007 -0.015,0.014 -0.022,0.022c-8.053,8.286 -13.015,19.591 -13.015,32.047c-0,25.388 20.612,46 46,46c25.388,-0 46,-20.612 46,-46c-0,-12.477 -4.981,-23.8 -13.082,-32.002c-0.003,-0.003 -0.006,-0.007 -0.01,-0.01c-4.842,-4.869 -6.28,-12.173 -3.643,-18.514c2.636,-6.341 8.828,-10.473 15.695,-10.474l84.54,-0Z" style="fill:#f3f4f3;"/>
            <path d="M4.988,271.754l0,-267c0,-0 213.578,-0 267,-0l0,90.738c-0.796,7.553 -5.653,14.157 -12.773,17.117c-7.778,3.234 -16.734,1.487 -22.771,-4.471c-7.566,-7.353 -17.888,-11.884 -29.26,-11.884c-23.18,-0 -42,18.819 -42,42c-0,23.18 18.82,42 42,42c11.38,-0 21.71,-4.539 29.191,-11.928c6.015,-5.982 15.038,-7.758 22.871,-4.501c6.94,2.886 11.738,9.219 12.742,16.527l0,91.4c-19.675,-0.004 -59.51,-0.02 -88.538,-0.078c-8.452,-0 -16.073,-5.085 -19.317,-12.889c-3.234,-7.778 -1.487,-16.735 4.471,-22.772c7.353,-7.565 11.884,-17.887 11.884,-29.259c0,-23.181 -18.819,-42 -42,-42c-23.18,-0 -42,18.819 -42,42c0,11.38 4.539,21.71 11.928,29.191c5.982,6.015 7.758,15.038 4.501,22.871c-3.257,7.833 -10.906,12.937 -19.389,12.938l-88.54,-0Zm4,-4l0,-259.005c0.621,0.003 1.299,0.005 2.034,0.005c34.17,-0 203.755,-0 256.966,-0c0,-0 0,86.517 0,86.517c-0.71,6.03 -4.614,11.277 -10.308,13.645c-6.295,2.617 -13.541,1.196 -18.427,-3.625c-0.007,-0.007 -0.014,-0.015 -0.022,-0.022c-8.286,-8.053 -19.591,-13.015 -32.047,-13.015c-25.388,-0 -46,20.612 -46,46c-0,25.388 20.612,46 46,46c12.477,-0 23.8,-4.981 32.002,-13.082c0.003,-0.003 0.007,-0.006 0.01,-0.01c4.869,-4.842 12.173,-6.28 18.514,-3.643c5.536,2.301 9.389,7.313 10.278,13.118c0,0.003 0,87.114 0,87.114c-20.708,-0.005 -57.355,-0.023 -84.53,-0.077c-0.003,-0 -0.006,-0 -0.008,-0c-6.836,-0 -13,-4.113 -15.624,-10.424c-2.617,-6.295 -1.196,-13.541 3.625,-18.427c0.007,-0.007 0.015,-0.014 0.022,-0.022c8.053,-8.286 13.015,-19.592 13.015,-32.047c0,-25.388 -20.612,-46 -46,-46c-25.388,-0 -46,20.612 -46,46c0,12.477 4.981,23.8 13.082,32.002c0.003,0.003 0.006,0.007 0.01,0.01c4.842,4.869 6.28,12.173 3.643,18.514c-2.636,6.341 -8.828,10.473 -15.695,10.474l-84.54,-0Z" style="fill:#f3f4f3;"/>
            <path d="M271.988,805.5l-267,0c0,0 0,-213.578 0,-267l90.739,0c7.553,0.796 14.156,5.653 17.117,12.773c3.234,7.778 1.486,16.735 -4.472,22.772c-7.352,7.565 -11.884,17.887 -11.884,29.259c0,23.181 18.82,42 42,42c23.181,0 42,-18.819 42,-42c0,-11.38 -4.539,-21.71 -11.927,-29.191c-5.982,-6.015 -7.758,-15.038 -4.502,-22.871c2.886,-6.94 9.22,-11.738 16.527,-12.742l91.401,0c-0.005,19.676 -0.021,59.51 -0.079,88.539c0,8.451 -5.085,16.072 -12.888,19.316c-7.779,3.234 -16.735,1.487 -22.772,-4.471c-7.566,-7.352 -17.888,-11.884 -29.26,-11.884c-23.18,0 -42,18.82 -42,42c0,23.18 18.82,42 42,42c11.38,0 21.71,-4.539 29.192,-11.928c6.014,-5.982 15.037,-7.757 22.87,-4.501c7.833,3.257 12.937,10.906 12.938,19.389l0,88.54Zm-4,-4l-259.005,0c0.003,-0.621 0.005,-1.299 0.005,-2.034c0,-34.17 0,-203.755 0,-256.966c0,0 86.517,0 86.517,0c6.03,0.71 11.278,4.615 13.645,10.308c2.617,6.295 1.197,13.542 -3.625,18.427c-0.007,0.007 -0.014,0.015 -0.021,0.022c-8.053,8.286 -13.016,19.592 -13.016,32.047c0,25.388 20.612,46 46,46c25.388,0 46,-20.612 46,-46c0,-12.477 -4.981,-23.8 -13.082,-32.002c-0.003,-0.003 -0.006,-0.007 -0.009,-0.01c-4.843,-4.869 -6.28,-12.173 -3.644,-18.514c2.302,-5.536 7.313,-9.388 13.119,-10.278c0.002,0 87.114,0 87.114,0c-0.006,20.708 -0.024,57.355 -0.078,84.531c0,0.002 0,0.005 0,0.008c0,6.835 -4.113,12.999 -10.424,15.623c-6.294,2.617 -13.541,1.196 -18.426,-3.625c-0.008,-0.007 -0.015,-0.014 -0.022,-0.022c-8.287,-8.052 -19.592,-13.015 -32.048,-13.015c-25.388,0 -46,20.612 -46,46c0,25.388 20.612,46 46,46c12.477,0 23.8,-4.981 32.002,-13.082c0.004,-0.003 0.007,-0.006 0.01,-0.01c4.869,-4.842 12.174,-6.28 18.515,-3.643c6.341,2.636 10.473,8.829 10.473,15.696l0,84.539Z" style="fill:#f3f4f3;"/>
            <path d="M539.012,4.754l267,-0c-0,-0 -0,213.578 -0,267l-90.739,-0c-7.553,-0.796 -14.156,-5.653 -17.117,-12.773c-3.234,-7.778 -1.486,-16.735 4.472,-22.772c7.352,-7.565 11.884,-17.887 11.884,-29.259c-0,-23.181 -18.82,-42 -42,-42c-23.181,-0 -42,18.819 -42,42c-0,11.38 4.539,21.71 11.927,29.191c5.982,6.015 7.758,15.038 4.502,22.871c-2.886,6.94 -9.22,11.738 -16.527,12.742l-91.401,-0c0.005,-19.676 0.021,-59.51 0.079,-88.539c-0,-8.451 5.085,-16.072 12.888,-19.317c7.779,-3.234 16.735,-1.486 22.772,4.472c7.566,7.352 17.888,11.884 29.26,11.884c23.18,-0 42,-18.82 42,-42c-0,-23.181 -18.82,-42 -42,-42c-11.38,-0 -21.71,4.539 -29.192,11.927c-6.014,5.982 -15.037,7.758 -22.87,4.501c-7.833,-3.256 -12.937,-10.906 -12.938,-19.389l-0,-88.539Zm4,4l259.005,-0c-0.003,0.62 -0.005,1.299 -0.005,2.033c-0,34.171 -0,203.756 -0,256.967c-0,-0 -86.517,-0 -86.517,-0c-6.03,-0.71 -11.278,-4.615 -13.645,-10.309c-2.617,-6.294 -1.197,-13.541 3.625,-18.426c0.007,-0.007 0.014,-0.015 0.021,-0.022c8.053,-8.286 13.016,-19.592 13.016,-32.047c-0,-25.389 -20.612,-46 -46,-46c-25.388,-0 -46,20.611 -46,46c-0,12.476 4.981,23.8 13.082,32.002c0.003,0.003 0.006,0.006 0.009,0.01c4.843,4.869 6.28,12.173 3.644,18.514c-2.302,5.536 -7.313,9.388 -13.119,10.277c-0.002,0.001 -87.114,0.001 -87.114,0.001c0.006,-20.708 0.024,-57.355 0.078,-84.531c-0,-0.002 -0,-0.005 -0,-0.008c-0,-6.835 4.113,-12.999 10.424,-15.623c6.294,-2.617 13.541,-1.197 18.426,3.625c0.008,0.007 0.015,0.014 0.022,0.021c8.287,8.053 19.592,13.016 32.048,13.016c25.388,-0 46,-20.612 46,-46c-0,-25.388 -20.612,-46 -46,-46c-12.477,-0 -23.8,4.981 -32.002,13.082c-0.004,0.003 -0.007,0.006 -0.01,0.009c-4.869,4.843 -12.174,6.28 -18.515,3.644c-6.341,-2.636 -10.473,-8.829 -10.473,-15.696l-0,-84.539Z" style="fill:#f3f4f3;"/>
            <path d="M543.011,538.503l-3.999,-0.001c-0,-0 -0,-88.541 -0,-88.541c-0,0 -0,-0 -0,-0.001c-0.001,-8.483 -5.105,-16.132 -12.938,-19.389c-7.833,-3.256 -16.856,-1.481 -22.871,4.501c-7.481,7.389 -17.811,11.928 -29.191,11.928c-23.181,0 -42,-18.82 -42,-42c-0,-23.18 18.819,-42 42,-42c11.372,-0 21.694,4.531 29.259,11.884c6.037,5.958 14.994,7.705 22.772,4.471c7.804,-3.244 12.889,-10.865 12.889,-19.316c0.058,-29.029 0.074,-68.863 0.078,-88.539l88.541,-0c8.483,-0.001 16.133,-5.105 19.39,-12.938c3.256,-7.833 1.48,-16.856 -4.502,-22.871c-7.388,-7.481 -11.927,-17.811 -11.927,-29.191c-0,-23.18 18.819,-42 42,-42c23.18,0 42,18.82 42,42c-0,11.372 -4.532,21.694 -11.884,29.26c-5.958,6.037 -7.706,14.993 -4.472,22.772c3.245,7.803 10.866,12.888 19.317,12.888c29.029,0.058 68.863,0.074 88.539,0.078c-0,0 -0,267.002 -0,267.002l-88.54,0c-8.483,0.001 -16.132,5.105 -19.389,12.938c-3.257,7.833 -1.481,16.856 4.501,22.871c7.389,7.481 11.928,17.811 11.928,29.191c-0,23.18 -18.82,42 -42,42c-23.181,0 -42,-18.82 -42,-42c-0,-11.372 4.531,-21.694 11.884,-29.26c5.958,-6.037 7.705,-14.993 4.471,-22.772c-3.244,-7.803 -10.865,-12.888 -19.317,-12.888c-27.179,-0.054 -63.832,-0.072 -84.539,-0.077Zm259.001,-263.006l-0,259.003l-84.54,0c-10.099,0.001 -19.205,6.077 -23.082,15.402c-3.877,9.325 -1.763,20.067 5.358,27.227c6.667,6.751 10.764,16.087 10.764,26.371c-0,20.973 -17.027,38 -38,38c-20.973,0 -38,-17.027 -38,-38c-0,-10.286 4.098,-19.623 10.747,-26.467c7.082,-7.188 9.15,-17.845 5.302,-27.1c-3.865,-9.296 -12.944,-15.353 -23.011,-15.353c-27.174,-0.054 -63.829,-0.072 -84.538,-0.077l-0,-84.543c-0.001,-10.099 -6.078,-19.205 -15.403,-23.082c-9.324,-3.877 -20.066,-1.763 -27.226,5.358c-6.751,6.667 -16.087,10.764 -26.371,10.764c-20.973,0 -38,-17.027 -38,-38c-0,-20.973 17.027,-38 38,-38c10.286,0 19.623,4.099 26.467,10.748c7.188,7.081 17.845,9.149 27.1,5.301c9.296,-3.865 15.353,-12.943 15.353,-23.01c0.054,-27.174 0.072,-63.828 0.077,-84.539l84.543,-0c10.099,-0.001 19.205,-6.077 23.082,-15.402c3.877,-9.325 1.763,-20.067 -5.358,-27.227c-6.668,-6.751 -10.764,-16.087 -10.764,-26.371c-0,-20.973 17.027,-38 38,-38c20.973,0 38,17.027 38,38c-0,10.286 -4.099,19.623 -10.748,26.467c-7.081,7.188 -9.149,17.845 -5.301,27.1c3.865,9.296 12.943,15.353 23.01,15.353c27.175,0.054 63.829,0.072 84.539,0.077Z" style="fill:#f3f4f3;"/>
            <path d="M267.989,538.503l3.999,-0.001c0,-0 0,-88.541 0,-88.541c0,0 0,-0 0,-0.001c0.001,-8.483 5.105,-16.132 12.938,-19.389c7.833,-3.256 16.856,-1.481 22.871,4.501c7.481,7.389 17.811,11.928 29.191,11.928c23.181,-0 42,-18.82 42,-42c0,-23.18 -18.819,-42 -42,-42c-11.372,-0 -21.694,4.531 -29.259,11.884c-6.037,5.958 -14.994,7.705 -22.772,4.471c-7.804,-3.244 -12.889,-10.865 -12.889,-19.316c-0.058,-29.029 -0.074,-68.863 -0.078,-88.539l-88.541,-0c-8.483,-0.001 -16.133,-5.105 -19.39,-12.938c-3.256,-7.833 -1.48,-16.856 4.502,-22.871c7.388,-7.481 11.927,-17.811 11.927,-29.191c0,-23.18 -18.819,-42 -42,-42c-23.18,0 -42,18.82 -42,42c0,11.372 4.532,21.694 11.884,29.26c5.958,6.037 7.706,14.993 4.472,22.772c-3.245,7.803 -10.866,12.888 -19.317,12.888c-29.029,0.058 -68.863,0.074 -88.539,0.078c0,0 0,267.002 0,267.002l88.54,0c8.483,0.001 16.132,5.105 19.389,12.938c3.257,7.833 1.481,16.856 -4.501,22.871c-7.389,7.481 -11.928,17.811 -11.928,29.191c0,23.18 18.82,42 42,42c23.181,-0 42,-18.82 42,-42c0,-11.372 -4.531,-21.694 -11.884,-29.26c-5.958,-6.037 -7.705,-14.993 -4.471,-22.772c3.244,-7.803 10.865,-12.888 19.317,-12.888c27.179,-0.054 63.832,-0.072 84.539,-0.077Zm-0.001,-4c-20.709,0.005 -57.365,0.023 -84.546,0.077c-10.059,0 -19.138,6.057 -23.003,15.353c-3.848,9.255 -1.78,19.912 5.301,27.1c6.65,6.844 10.748,16.181 10.748,26.467c0,20.973 -17.027,38 -38,38c-20.973,-0 -38,-17.027 -38,-38c0,-10.284 4.097,-19.62 10.774,-26.381c7.111,-7.15 9.225,-17.892 5.348,-27.217c-3.877,-9.325 -12.983,-15.401 -23.082,-15.402l-84.54,0c0,-29.693 0,-215.753 0,-255.526l0,-3.477c20.71,-0.005 57.365,-0.023 84.547,-0.077c10.059,-0 19.137,-6.057 23.002,-15.353c3.848,-9.255 1.78,-19.912 -5.301,-27.1c-6.649,-6.844 -10.748,-16.181 -10.748,-26.467c0,-20.973 17.027,-38 38,-38c20.973,0 38,17.027 38,38c0,10.284 -4.096,19.62 -10.773,26.381c-7.112,7.15 -9.226,17.892 -5.349,27.217c3.877,9.325 12.983,15.401 23.082,15.402l84.543,-0c0.005,20.711 0.023,57.365 0.077,84.547c0,10.059 6.057,19.137 15.353,23.002c9.255,3.848 19.912,1.78 27.1,-5.301c6.844,-6.649 16.181,-10.748 26.467,-10.748c20.973,-0 38,17.027 38,38c0,20.973 -17.027,38 -38,38c-10.284,-0 -19.62,-4.097 -26.38,-10.774c-7.151,-7.111 -17.893,-9.225 -27.217,-5.348c-9.325,3.877 -15.402,12.983 -15.403,23.082l0,84.543Z" style="fill:#f3f4f3;"/>
            <path d="M539.009,275.5c-0.005,20.707 -0.023,57.359 -0.077,84.539c-0,8.451 -5.085,16.072 -12.889,19.316c-7.778,3.234 -16.735,1.487 -22.772,-4.471c-7.565,-7.353 -17.887,-11.884 -29.259,-11.884c-23.181,0 -42,18.82 -42,42c-0,23.18 18.819,42 42,42c11.38,0 21.71,-4.539 29.191,-11.928c6.015,-5.982 15.038,-7.757 22.871,-4.501c7.833,3.257 12.937,10.906 12.938,19.389l-0,88.54l-88.54,0c-8.483,0.001 -16.132,5.105 -19.389,12.938c-3.257,7.833 -1.481,16.856 4.501,22.871c7.389,7.481 11.928,17.811 11.928,29.191c-0,23.18 -18.82,42 -42,42c-23.181,-0 -42,-18.82 -42,-42c-0,-11.372 4.531,-21.694 11.884,-29.26c5.958,-6.037 7.705,-14.993 4.471,-22.772c-3.244,-7.803 -10.865,-12.888 -19.317,-12.888c-29.028,-0.058 -68.863,-0.074 -88.538,-0.078l-0,-0.002l0.001,0c0.005,-19.676 0.021,-59.51 0.079,-88.539c-0,-8.451 5.085,-16.072 12.888,-19.316c7.779,-3.234 16.735,-1.487 22.772,4.471c7.566,7.353 17.888,11.884 29.26,11.884c23.18,-0 42,-18.82 42,-42c-0,-23.18 -18.82,-42 -42,-42c-11.38,-0 -21.71,4.539 -29.192,11.928c-6.014,5.982 -15.037,7.757 -22.87,4.501c-7.833,-3.257 -12.937,-10.906 -12.938,-19.389l-0,-88.54l88.539,-0c8.483,-0.001 16.133,-5.105 19.39,-12.938c3.256,-7.833 1.48,-16.856 -4.502,-22.871c-7.388,-7.481 -11.927,-17.811 -11.927,-29.191c-0,-23.18 18.819,-42 42,-42c23.18,0 42,18.82 42,42c-0,11.372 -4.532,21.694 -11.884,29.26c-5.958,6.037 -7.706,14.993 -4.472,22.772c3.245,7.803 10.866,12.888 19.317,12.888c27.18,0.054 63.832,0.072 84.539,0.077l-0,0.001l0.01,0.292l0.012,0.137c0.068,0.642 0.291,1.255 0.646,1.789c1.112,1.549 3.238,1.773 3.329,1.782l-0,0l-0.067,0l0.067,0.002Zm-4,-0.003c-0.005,20.707 -0.023,57.356 -0.077,84.534c-0,0.002 -0,0.005 -0,0.008c-0,6.835 -4.113,12.999 -10.424,15.623c-6.295,2.617 -13.541,1.196 -18.427,-3.625c-0.007,-0.007 -0.014,-0.014 -0.022,-0.022c-8.286,-8.052 -19.592,-13.015 -32.047,-13.015c-25.388,0 -46,20.612 -46,46c-0,25.388 20.612,46 46,46c12.477,0 23.8,-4.981 32.002,-13.082c0.003,-0.003 0.007,-0.006 0.01,-0.01c4.869,-4.842 12.173,-6.28 18.514,-3.643c6.341,2.636 10.473,8.829 10.474,15.696l-0,84.539l-84.54,0c-10.099,0.001 -19.205,6.077 -23.082,15.402c-3.877,9.325 -1.763,20.067 5.358,27.227c6.667,6.751 10.764,16.087 10.764,26.371c-0,20.973 -17.027,38 -38,38c-20.973,-0 -38,-17.027 -38,-38c-0,-10.286 4.098,-19.623 10.747,-26.467c7.082,-7.188 9.15,-17.845 5.302,-27.1c-3.865,-9.296 -12.944,-15.353 -23.011,-15.353c-27.171,-0.054 -63.821,-0.072 -84.535,-0.077c0.005,-20.707 0.023,-57.356 0.077,-84.534c-0,-0.002 -0,-0.005 -0,-0.008c-0,-6.835 4.113,-12.999 10.424,-15.623c6.294,-2.617 13.541,-1.196 18.426,3.625c0.008,0.007 0.015,0.014 0.022,0.022c8.287,8.052 19.592,13.015 32.048,13.015c25.388,-0 46,-20.612 46,-46c-0,-25.388 -20.612,-46 -46,-46c-12.477,-0 -23.8,4.981 -32.002,13.082c-0.004,0.003 -0.007,0.006 -0.01,0.01c-4.869,4.842 -12.174,6.28 -18.515,3.643c-6.341,-2.636 -10.473,-8.829 -10.473,-15.696c-0,0 -0,-84.539 -0,-84.539l84.54,-0c10.099,-0.001 19.205,-6.077 23.082,-15.402c3.877,-9.325 1.763,-20.067 -5.358,-27.227c-6.668,-6.751 -10.764,-16.087 -10.764,-26.371c-0,-20.973 17.027,-38 38,-38c20.973,0 38,17.027 38,38c-0,10.286 -4.099,19.623 -10.748,26.467c-7.081,7.188 -9.149,17.845 -5.301,27.1c3.865,9.296 12.943,15.353 23.01,15.353c27.172,0.054 63.822,0.072 84.536,0.077Zm0.342,-4l3.661,0.001l-0,0.002l-0.002,-0l-0.001,3.996c-0.1,-0.122 -2.71,-3.34 -3.658,-3.999Z" style="fill:#f3f4f3;"/>
            <path d="M272.011,4.754l0.001,-0l-0,0.001l1.748,0c-0.388,1.331 -1.034,2.662 -1.424,3.403c0.464,-0.843 1.351,-2.39 2.138,-3.403l1.538,0l-0.002,0.013l0,0.054l0.002,-0.067c37.434,0.004 263,-0.001 263,-0.001l-0,88.539c0.001,8.483 5.105,16.133 12.938,19.389c7.833,3.257 16.856,1.481 22.87,-4.501c7.482,-7.388 17.812,-11.927 29.192,-11.927c23.18,-0 42,18.819 42,42c-0,23.18 -18.82,42 -42,42c-11.372,-0 -21.694,-4.532 -29.26,-11.884c-6.037,-5.958 -14.993,-7.706 -22.772,-4.472c-7.803,3.245 -12.888,10.866 -12.888,19.317c-0.058,29.029 -0.074,68.863 -0.079,88.539l-0.001,-0l-0,-0.002l-3.998,-0.001l-0.001,-0.022l-0.001,0.022c-20.707,-0.005 -57.359,-0.023 -84.539,-0.077c-8.451,-0 -16.072,-5.085 -19.317,-12.889c-3.234,-7.778 -1.486,-16.735 4.472,-22.772c7.352,-7.565 11.884,-17.887 11.884,-29.259c-0,-23.181 -18.82,-42 -42,-42c-23.181,-0 -42,18.819 -42,42c-0,11.38 4.539,21.71 11.927,29.191c5.982,6.015 7.758,15.038 4.502,22.871c-3.257,7.833 -10.907,12.937 -19.39,12.938l-88.539,-0l-0,-88.54c-0.001,-8.483 -5.105,-16.132 -12.938,-19.389c-7.833,-3.257 -16.856,-1.481 -22.871,4.501c-7.481,7.389 -17.811,11.928 -29.191,11.928c-23.181,-0 -42,-18.82 -42,-42c-0,-23.181 18.819,-42 42,-42c11.372,-0 21.694,4.531 29.259,11.884c6.037,5.958 14.994,7.705 22.772,4.471c7.804,-3.244 12.889,-10.865 12.889,-19.317c0.054,-27.179 0.072,-63.832 0.077,-84.538l0.001,-0l0,-0l-0.001,-0.001l-0,-0.001l0.001,0.001l0.001,-3.999Zm126.347,4.002l136.654,-0.002l-0,84.54c0.001,10.098 6.077,19.205 15.402,23.082c9.325,3.877 20.067,1.763 27.227,-5.358c6.751,-6.668 16.087,-10.764 26.371,-10.764c20.973,-0 38,17.027 38,38c-0,20.973 -17.027,38 -38,38c-10.287,-0 -19.623,-4.099 -26.467,-10.748c-7.189,-7.081 -17.845,-9.149 -27.1,-5.301c-9.296,3.865 -15.353,12.943 -15.353,23.01c-0.054,27.172 -0.072,63.822 -0.077,84.536c-20.707,-0.005 -57.356,-0.023 -84.534,-0.077c-0.002,-0 -0.005,-0 -0.008,-0c-6.835,-0 -12.999,-4.113 -15.623,-10.424c-2.617,-6.295 -1.197,-13.541 3.625,-18.427c0.007,-0.007 0.014,-0.014 0.021,-0.022c8.053,-8.286 13.016,-19.592 13.016,-32.047c-0,-25.388 -20.612,-46 -46,-46c-25.388,-0 -46,20.612 -46,46c-0,12.477 4.981,23.8 13.082,32.002c0.003,0.003 0.006,0.007 0.009,0.01c4.843,4.869 6.28,12.173 3.644,18.514c-2.636,6.341 -8.829,10.473 -15.696,10.474c0,-0 -84.539,-0 -84.539,-0l-0,-84.54c-0.001,-10.099 -6.078,-19.205 -15.403,-23.082c-9.324,-3.877 -20.066,-1.763 -27.226,5.358c-6.751,6.667 -16.087,10.764 -26.371,10.764c-20.973,-0 -38,-17.027 -38,-38c-0,-20.973 17.027,-38 38,-38c10.286,-0 19.623,4.098 26.467,10.747c7.188,7.082 17.845,9.15 27.1,5.302c9.296,-3.865 15.353,-12.944 15.353,-23.011c0.054,-27.174 0.072,-63.829 0.077,-84.537l122.349,0.001Z" style="fill:#f3f4f3;"/>
            <path d="M539.012,805.5l-0,-88.54c0.001,-8.483 5.105,-16.132 12.938,-19.389c7.833,-3.256 16.856,-1.481 22.87,4.501c7.482,7.389 17.812,11.928 29.192,11.928c23.18,0 42,-18.82 42,-42c-0,-23.18 -18.82,-42 -42,-42c-11.372,0 -21.694,4.532 -29.26,11.884c-6.037,5.958 -14.993,7.705 -22.772,4.471c-7.803,-3.244 -12.888,-10.865 -12.888,-19.316c-0.058,-29.029 -0.074,-68.863 -0.079,-88.539l-0.001,0l-0,0.002c-19.676,0.004 -59.51,0.02 -88.539,0.078c-8.451,0 -16.072,5.085 -19.317,12.888c-3.234,7.779 -1.486,16.735 4.472,22.772c7.352,7.566 11.884,17.888 11.884,29.26c-0,23.18 -18.82,42 -42,42c-23.181,0 -42,-18.82 -42,-42c-0,-11.38 4.539,-21.71 11.927,-29.191c5.982,-6.015 7.758,-15.038 4.502,-22.871c-3.257,-7.833 -10.907,-12.937 -19.39,-12.938l-88.539,0l-0,88.54c-0.001,8.483 -5.105,16.132 -12.938,19.389c-7.833,3.256 -16.856,1.481 -22.871,-4.501c-7.481,-7.389 -17.811,-11.928 -29.191,-11.928c-23.181,0 -42,18.82 -42,42c-0,23.18 18.819,42 42,42c11.372,0 21.694,-4.531 29.259,-11.884c6.037,-5.958 14.994,-7.705 22.772,-4.471c7.804,3.244 12.889,10.865 12.889,19.316c0.058,29.029 0.074,68.863 0.078,88.539l0.002,0l-0,-0.002c19.675,-0.004 267,0.002 267,0.002Zm-3.997,-262.997c0.005,20.714 0.023,57.365 0.077,84.544c-0,10.059 6.057,19.137 15.353,23.002c9.255,3.848 19.911,1.78 27.1,-5.301c6.844,-6.649 16.18,-10.748 26.467,-10.748c20.973,0 38,17.027 38,38c-0,20.973 -17.027,38 -38,38c-10.284,0 -19.62,-4.097 -26.381,-10.774c-7.15,-7.111 -17.892,-9.225 -27.217,-5.348c-9.325,3.877 -15.401,12.983 -15.402,23.082l-0,84.54c-30.383,-0.001 -224.502,-0.005 -259.003,-0.002c-0.005,-20.707 -0.023,-57.363 -0.077,-84.545c-0,-10.059 -6.057,-19.137 -15.353,-23.002c-9.255,-3.848 -19.912,-1.78 -27.1,5.301c-6.844,6.65 -16.181,10.748 -26.467,10.748c-20.973,0 -38,-17.027 -38,-38c-0,-20.973 17.027,-38 38,-38c10.284,0 19.62,4.097 26.38,10.774c7.151,7.111 17.893,9.225 27.217,5.348c9.325,-3.877 15.402,-12.983 15.403,-23.082l-0,-84.54c-0,0 84.539,0 84.539,0c6.867,0.001 13.06,4.133 15.696,10.474c2.636,6.341 1.199,13.645 -3.644,18.514c-0.003,0.003 -0.006,0.007 -0.009,0.01c-8.101,8.202 -13.082,19.525 -13.082,32.002c-0,25.388 20.612,46 46,46c25.388,0 46,-20.612 46,-46c-0,-12.456 -4.963,-23.761 -13.016,-32.047c-0.007,-0.008 -0.014,-0.015 -0.021,-0.022c-4.822,-4.886 -6.242,-12.132 -3.625,-18.427c2.624,-6.311 8.788,-10.424 15.623,-10.424c0.003,0 0.006,0 0.008,0c27.178,-0.054 63.827,-0.072 84.534,-0.077Z" style="fill:#f3f4f3;"/>
        </g>
        <path d="M810.012,4.756c-0,-2.209 -1.791,-4 -4,-4l-801.024,0c-2.209,0 -4,1.791 -4,4l0,800.741c0,2.21 1.791,4 4,4l801.024,0c2.209,0 4,-1.79 4,-4l-0,-800.741Zm-4,0l-801.024,0l0,800.741l801.024,0l-0,-800.741Z" style="fill:#f3f4f3;"/>
    </g>
</svg>
