<svg width="767" height="1098" viewBox="0 0 767 1098" fill="none" xmlns="http://www.w3.org/2000/svg">
<circle cx="342.056" cy="5.4989" r="5.5" fill="#E4E4E4"/>
<circle cx="370.056" cy="5.4989" r="5.5" fill="#E4E4E4"/>
<circle cx="398.056" cy="5.4989" r="5.5" fill="#E4E4E4"/>
<circle cx="426.056" cy="5.4989" r="5.5" fill="#E4E4E4"/>
<circle cx="454.056" cy="5.4989" r="5.5" fill="#E4E4E4"/>
<circle cx="314.056" cy="38.499" r="5.5" fill="#E4E4E4"/>
<circle cx="342.056" cy="38.499" r="5.5" fill="#E4E4E4"/>
<circle cx="370.056" cy="38.499" r="5.5" fill="#E4E4E4"/>
<circle cx="398.056" cy="38.499" r="5.5" fill="#E4E4E4"/>
<circle cx="426.056" cy="38.499" r="5.5" fill="#E4E4E4"/>
<circle cx="454.056" cy="38.499" r="5.5" fill="#E4E4E4"/>
<circle cx="482.056" cy="38.499" r="5.5" fill="#E4E4E4"/>
<circle cx="286.056" cy="71.499" r="5.5" fill="#E4E4E4"/>
<circle cx="314.056" cy="71.499" r="5.5" fill="#E4E4E4"/>
<circle cx="342.056" cy="71.499" r="5.5" fill="#E4E4E4"/>
<circle cx="370.056" cy="71.499" r="5.5" fill="#E4E4E4"/>
<circle cx="398.056" cy="71.499" r="5.5" fill="#E4E4E4"/>
<circle cx="426.056" cy="71.499" r="5.5" fill="#E4E4E4"/>
<circle cx="454.056" cy="71.499" r="5.5" fill="#E4E4E4"/>
<circle cx="482.056" cy="71.499" r="5.5" fill="#E4E4E4"/>
<circle cx="510.056" cy="71.499" r="5.5" fill="#E4E4E4"/>
<circle cx="258.056" cy="104.499" r="5.5" fill="#E4E4E4"/>
<circle cx="286.056" cy="104.499" r="5.5" fill="#E4E4E4"/>
<circle cx="314.056" cy="104.499" r="5.5" fill="#E4E4E4"/>
<circle cx="342.056" cy="104.499" r="5.5" fill="#E4E4E4"/>
<circle cx="370.056" cy="104.499" r="5.5" fill="#E4E4E4"/>
<circle cx="398.056" cy="104.499" r="5.5" fill="#E4E4E4"/>
<circle cx="426.056" cy="104.499" r="5.5" fill="#E4E4E4"/>
<circle cx="454.056" cy="104.499" r="5.5" fill="#E4E4E4"/>
<circle cx="482.056" cy="104.499" r="5.5" fill="#E4E4E4"/>
<circle cx="510.056" cy="104.499" r="5.5" fill="#E4E4E4"/>
<circle cx="538.056" cy="104.499" r="5.5" fill="#E4E4E4"/>
<circle cx="258.056" cy="137.499" r="5.5" fill="#E4E4E4"/>
<circle cx="286.056" cy="137.499" r="5.5" fill="#E4E4E4"/>
<circle cx="314.056" cy="137.499" r="5.5" fill="#E4E4E4"/>
<circle cx="342.056" cy="137.499" r="5.5" fill="#E4E4E4"/>
<circle cx="370.056" cy="137.499" r="5.5" fill="#E4E4E4"/>
<circle cx="398.056" cy="137.499" r="5.5" fill="#E4E4E4"/>
<circle cx="426.056" cy="137.499" r="5.5" fill="#E4E4E4"/>
<circle cx="454.056" cy="137.499" r="5.5" fill="#E4E4E4"/>
<circle cx="482.056" cy="137.499" r="5.5" fill="#E4E4E4"/>
<circle cx="510.056" cy="137.499" r="5.5" fill="#E4E4E4"/>
<circle cx="538.056" cy="137.499" r="5.5" fill="#E4E4E4"/>
<circle cx="258.056" cy="170.499" r="5.5" fill="#E4E4E4"/>
<circle cx="286.056" cy="170.499" r="5.5" fill="#E4E4E4"/>
<circle cx="314.056" cy="170.499" r="5.5" fill="#E4E4E4"/>
<circle cx="342.056" cy="170.499" r="5.5" fill="#E4E4E4"/>
<circle cx="370.056" cy="170.499" r="5.5" fill="#E4E4E4"/>
<circle cx="398.056" cy="170.499" r="5.5" fill="#E4E4E4"/>
<circle cx="426.056" cy="170.499" r="5.5" fill="#E4E4E4"/>
<circle cx="454.056" cy="170.499" r="5.5" fill="#E4E4E4"/>
<circle cx="482.056" cy="170.499" r="5.5" fill="#E4E4E4"/>
<circle cx="510.056" cy="170.499" r="5.5" fill="#E4E4E4"/>
<circle cx="538.056" cy="170.499" r="5.5" fill="#E4E4E4"/>
<circle cx="286.056" cy="203.499" r="5.5" fill="#E4E4E4"/>
<circle cx="314.056" cy="203.499" r="5.5" fill="#E4E4E4"/>
<circle cx="342.056" cy="203.499" r="5.5" fill="#E4E4E4"/>
<circle cx="370.056" cy="203.499" r="5.5" fill="#E4E4E4"/>
<circle cx="398.056" cy="203.499" r="5.5" fill="#E4E4E4"/>
<circle cx="426.056" cy="203.499" r="5.5" fill="#E4E4E4"/>
<circle cx="454.056" cy="203.499" r="5.5" fill="#E4E4E4"/>
<circle cx="482.056" cy="203.499" r="5.5" fill="#E4E4E4"/>
<circle cx="510.056" cy="203.499" r="5.5" fill="#E4E4E4"/>
<circle cx="314.056" cy="236.499" r="5.5" fill="#E4E4E4"/>
<circle cx="342.056" cy="236.499" r="5.5" fill="#E4E4E4"/>
<circle cx="370.056" cy="236.499" r="5.5" fill="#E4E4E4"/>
<circle cx="398.056" cy="236.499" r="5.5" fill="#E4E4E4"/>
<circle cx="426.056" cy="236.499" r="5.5" fill="#E4E4E4"/>
<circle cx="454.056" cy="236.499" r="5.5" fill="#E4E4E4"/>
<circle cx="482.056" cy="236.499" r="5.5" fill="#E4E4E4"/>
<circle cx="314.056" cy="269.499" r="5.5" fill="#E4E4E4"/>
<circle cx="342.056" cy="269.499" r="5.5" fill="#E4E4E4"/>
<circle cx="370.056" cy="269.499" r="5.5" fill="#E4E4E4"/>
<circle cx="398.056" cy="269.499" r="5.5" fill="#E4E4E4"/>
<circle cx="426.056" cy="269.499" r="5.5" fill="#E4E4E4"/>
<circle cx="454.056" cy="269.499" r="5.5" fill="#E4E4E4"/>
<circle cx="482.056" cy="269.499" r="5.5" fill="#E4E4E4"/>
<circle cx="286.056" cy="302.499" r="5.5" fill="#E4E4E4"/>
<circle cx="314.056" cy="302.499" r="5.5" fill="#E4E4E4"/>
<circle cx="342.056" cy="302.499" r="5.5" fill="#E4E4E4"/>
<circle cx="370.056" cy="302.499" r="5.5" fill="#E4E4E4"/>
<circle cx="398.056" cy="302.499" r="5.5" fill="#E4E4E4"/>
<circle cx="426.056" cy="302.499" r="5.5" fill="#E4E4E4"/>
<circle cx="454.056" cy="302.499" r="5.5" fill="#E4E4E4"/>
<circle cx="482.056" cy="302.499" r="5.5" fill="#E4E4E4"/>
<circle cx="510.056" cy="302.499" r="5.5" fill="#E4E4E4"/>
<circle cx="6.05566" cy="335.499" r="5.5" fill="#E4E4E4"/>
<circle cx="34.0557" cy="335.499" r="5.5" fill="#E4E4E4"/>
<circle cx="62.0557" cy="335.499" r="5.5" fill="#E4E4E4"/>
<circle cx="90.0557" cy="335.499" r="5.5" fill="#E4E4E4"/>
<circle cx="118.056" cy="335.499" r="5.5" fill="#E4E4E4"/>
<circle cx="146.056" cy="335.499" r="5.5" fill="#E4E4E4"/>
<circle cx="174.056" cy="335.499" r="5.5" fill="#E4E4E4"/>
<circle cx="202.056" cy="335.499" r="5.5" fill="#E4E4E4"/>
<circle cx="230.056" cy="335.499" r="5.5" fill="#E4E4E4"/>
<circle cx="258.056" cy="335.499" r="5.5" fill="#E4E4E4"/>
<circle cx="286.056" cy="335.499" r="5.5" fill="#E4E4E4"/>
<circle cx="314.056" cy="335.499" r="5.5" fill="#E4E4E4"/>
<circle cx="342.056" cy="335.499" r="5.5" fill="#E4E4E4"/>
<circle cx="370.056" cy="335.499" r="5.5" fill="#E4E4E4"/>
<circle cx="398.056" cy="335.499" r="5.5" fill="#E4E4E4"/>
<circle cx="426.056" cy="335.499" r="5.5" fill="#E4E4E4"/>
<circle cx="454.056" cy="335.499" r="5.5" fill="#E4E4E4"/>
<circle cx="482.056" cy="335.499" r="5.5" fill="#E4E4E4"/>
<circle cx="510.056" cy="335.499" r="5.5" fill="#E4E4E4"/>
<circle cx="538.056" cy="335.499" r="5.5" fill="#E4E4E4"/>
<circle cx="566.056" cy="335.499" r="5.5" fill="#E4E4E4"/>
<circle cx="594.056" cy="335.499" r="5.5" fill="#E4E4E4"/>
<circle cx="622.056" cy="335.499" r="5.5" fill="#E4E4E4"/>
<circle cx="650.056" cy="335.499" r="5.5" fill="#E4E4E4"/>
<circle cx="6.05566" cy="368.499" r="5.5" fill="#E4E4E4"/>
<circle cx="34.0557" cy="368.499" r="5.5" fill="#E4E4E4"/>
<circle cx="62.0557" cy="368.499" r="5.5" fill="#E4E4E4"/>
<circle cx="90.0557" cy="368.499" r="5.5" fill="#E4E4E4"/>
<circle cx="118.056" cy="368.499" r="5.5" fill="#E4E4E4"/>
<circle cx="146.056" cy="368.499" r="5.5" fill="#E4E4E4"/>
<circle cx="174.056" cy="368.499" r="5.5" fill="#E4E4E4"/>
<circle cx="202.056" cy="368.499" r="5.5" fill="#E4E4E4"/>
<circle cx="230.056" cy="368.499" r="5.5" fill="#E4E4E4"/>
<circle cx="258.056" cy="368.499" r="5.5" fill="#E4E4E4"/>
<circle cx="286.056" cy="368.499" r="5.5" fill="#E4E4E4"/>
<circle cx="314.056" cy="368.499" r="5.5" fill="#E4E4E4"/>
<circle cx="342.056" cy="368.499" r="5.5" fill="#E4E4E4"/>
<circle cx="370.056" cy="368.499" r="5.5" fill="#E4E4E4"/>
<circle cx="398.056" cy="368.499" r="5.5" fill="#E4E4E4"/>
<circle cx="426.056" cy="368.499" r="5.5" fill="#E4E4E4"/>
<circle cx="454.056" cy="368.499" r="5.5" fill="#E4E4E4"/>
<circle cx="482.056" cy="368.499" r="5.5" fill="#E4E4E4"/>
<circle cx="510.056" cy="368.499" r="5.5" fill="#E4E4E4"/>
<circle cx="538.056" cy="368.499" r="5.5" fill="#E4E4E4"/>
<circle cx="566.056" cy="368.499" r="5.5" fill="#E4E4E4"/>
<circle cx="594.056" cy="368.499" r="5.5" fill="#E4E4E4"/>
<circle cx="622.056" cy="368.499" r="5.5" fill="#E4E4E4"/>
<circle cx="650.056" cy="368.499" r="5.5" fill="#E4E4E4"/>
<circle cx="6.05566" cy="401.499" r="5.5" fill="#E4E4E4"/>
<circle cx="34.0557" cy="401.499" r="5.5" fill="#E4E4E4"/>
<circle cx="62.0557" cy="401.499" r="5.5" fill="#E4E4E4"/>
<circle cx="90.0557" cy="401.499" r="5.5" fill="#E4E4E4"/>
<circle cx="118.056" cy="401.499" r="5.5" fill="#E4E4E4"/>
<circle cx="146.056" cy="401.499" r="5.5" fill="#E4E4E4"/>
<circle cx="174.056" cy="401.499" r="5.5" fill="#E4E4E4"/>
<circle cx="202.056" cy="401.499" r="5.5" fill="#E4E4E4"/>
<circle cx="230.056" cy="401.499" r="5.5" fill="#E4E4E4"/>
<circle cx="258.056" cy="401.499" r="5.5" fill="#E4E4E4"/>
<circle cx="286.056" cy="401.499" r="5.5" fill="#E4E4E4"/>
<circle cx="314.056" cy="401.499" r="5.5" fill="#E4E4E4"/>
<circle cx="342.056" cy="401.499" r="5.5" fill="#E4E4E4"/>
<circle cx="370.056" cy="401.499" r="5.5" fill="#E4E4E4"/>
<circle cx="398.056" cy="401.499" r="5.5" fill="#E4E4E4"/>
<circle cx="426.056" cy="401.499" r="5.5" fill="#E4E4E4"/>
<circle cx="454.056" cy="401.499" r="5.5" fill="#E4E4E4"/>
<circle cx="482.056" cy="401.499" r="5.5" fill="#E4E4E4"/>
<circle cx="510.056" cy="401.499" r="5.5" fill="#E4E4E4"/>
<circle cx="538.056" cy="401.499" r="5.5" fill="#E4E4E4"/>
<circle cx="566.056" cy="401.499" r="5.5" fill="#E4E4E4"/>
<circle cx="594.056" cy="401.499" r="5.5" fill="#E4E4E4"/>
<circle cx="622.056" cy="401.499" r="5.5" fill="#E4E4E4"/>
<circle cx="650.056" cy="401.499" r="5.5" fill="#E4E4E4"/>
<circle cx="6.05566" cy="434.499" r="5.5" fill="#E4E4E4"/>
<circle cx="34.0557" cy="434.499" r="5.5" fill="#E4E4E4"/>
<circle cx="62.0557" cy="434.499" r="5.5" fill="#E4E4E4"/>
<circle cx="90.0557" cy="434.499" r="5.5" fill="#E4E4E4"/>
<circle cx="118.056" cy="434.499" r="5.5" fill="#E4E4E4"/>
<circle cx="146.056" cy="434.499" r="5.5" fill="#E4E4E4"/>
<circle cx="174.056" cy="434.499" r="5.5" fill="#E4E4E4"/>
<circle cx="202.056" cy="434.499" r="5.5" fill="#E4E4E4"/>
<circle cx="230.056" cy="434.499" r="5.5" fill="#E4E4E4"/>
<circle cx="258.056" cy="434.499" r="5.5" fill="#E4E4E4"/>
<circle cx="286.056" cy="434.499" r="5.5" fill="#E4E4E4"/>
<circle cx="314.056" cy="434.499" r="5.5" fill="#E4E4E4"/>
<circle cx="342.056" cy="434.499" r="5.5" fill="#E4E4E4"/>
<circle cx="370.056" cy="434.499" r="5.5" fill="#E4E4E4"/>
<circle cx="398.056" cy="434.499" r="5.5" fill="#E4E4E4"/>
<circle cx="426.056" cy="434.499" r="5.5" fill="#E4E4E4"/>
<circle cx="454.056" cy="434.499" r="5.5" fill="#E4E4E4"/>
<circle cx="482.056" cy="434.499" r="5.5" fill="#E4E4E4"/>
<circle cx="510.056" cy="434.499" r="5.5" fill="#E4E4E4"/>
<circle cx="538.056" cy="434.499" r="5.5" fill="#E4E4E4"/>
<circle cx="566.056" cy="434.499" r="5.5" fill="#E4E4E4"/>
<circle cx="594.056" cy="434.499" r="5.5" fill="#E4E4E4"/>
<circle cx="622.056" cy="434.499" r="5.5" fill="#E4E4E4"/>
<circle cx="650.056" cy="434.499" r="5.5" fill="#E4E4E4"/>
<circle cx="6.05566" cy="467.499" r="5.5" fill="#E4E4E4"/>
<circle cx="34.0557" cy="467.499" r="5.5" fill="#E4E4E4"/>
<circle cx="62.0557" cy="467.499" r="5.5" fill="#E4E4E4"/>
<circle cx="90.0557" cy="467.499" r="5.5" fill="#E4E4E4"/>
<circle cx="118.056" cy="467.499" r="5.5" fill="#E4E4E4"/>
<circle cx="146.056" cy="467.499" r="5.5" fill="#E4E4E4"/>
<circle cx="174.056" cy="467.499" r="5.5" fill="#E4E4E4"/>
<circle cx="202.056" cy="467.499" r="5.5" fill="#E4E4E4"/>
<circle cx="230.056" cy="467.499" r="5.5" fill="#E4E4E4"/>
<circle cx="258.056" cy="467.499" r="5.5" fill="#E4E4E4"/>
<circle cx="286.056" cy="467.499" r="5.5" fill="#E4E4E4"/>
<circle cx="314.056" cy="467.499" r="5.5" fill="#E4E4E4"/>
<circle cx="342.056" cy="467.499" r="5.5" fill="#E4E4E4"/>
<circle cx="370.056" cy="467.499" r="5.5" fill="#E4E4E4"/>
<circle cx="398.056" cy="467.499" r="5.5" fill="#E4E4E4"/>
<circle cx="426.056" cy="467.499" r="5.5" fill="#E4E4E4"/>
<circle cx="454.056" cy="467.499" r="5.5" fill="#E4E4E4"/>
<circle cx="482.056" cy="467.499" r="5.5" fill="#E4E4E4"/>
<circle cx="510.056" cy="467.499" r="5.5" fill="#E4E4E4"/>
<circle cx="538.056" cy="467.499" r="5.5" fill="#E4E4E4"/>
<circle cx="566.056" cy="467.499" r="5.5" fill="#E4E4E4"/>
<circle cx="594.056" cy="467.499" r="5.5" fill="#E4E4E4"/>
<circle cx="622.056" cy="467.499" r="5.5" fill="#E4E4E4"/>
<circle cx="650.056" cy="467.499" r="5.5" fill="#E4E4E4"/>
<circle cx="6.05566" cy="500.499" r="5.5" fill="#E4E4E4"/>
<circle cx="34.0557" cy="500.499" r="5.5" fill="#E4E4E4"/>
<circle cx="62.0557" cy="500.499" r="5.5" fill="#E4E4E4"/>
<circle cx="90.0557" cy="500.499" r="5.5" fill="#E4E4E4"/>
<circle cx="118.056" cy="500.499" r="5.5" fill="#E4E4E4"/>
<circle cx="146.056" cy="500.499" r="5.5" fill="#E4E4E4"/>
<circle cx="174.056" cy="500.499" r="5.5" fill="#E4E4E4"/>
<circle cx="202.056" cy="500.499" r="5.5" fill="#E4E4E4"/>
<circle cx="230.056" cy="500.499" r="5.5" fill="#E4E4E4"/>
<circle cx="258.056" cy="500.499" r="5.5" fill="#E4E4E4"/>
<circle cx="286.056" cy="500.499" r="5.5" fill="#E4E4E4"/>
<circle cx="314.056" cy="500.499" r="5.5" fill="#E4E4E4"/>
<circle cx="342.056" cy="500.499" r="5.5" fill="#E4E4E4"/>
<circle cx="370.056" cy="500.499" r="5.5" fill="#E4E4E4"/>
<circle cx="398.056" cy="500.499" r="5.5" fill="#E4E4E4"/>
<circle cx="426.056" cy="500.499" r="5.5" fill="#E4E4E4"/>
<circle cx="454.056" cy="500.499" r="5.5" fill="#E4E4E4"/>
<circle cx="482.056" cy="500.499" r="5.5" fill="#E4E4E4"/>
<circle cx="510.056" cy="500.499" r="5.5" fill="#E4E4E4"/>
<circle cx="538.056" cy="500.499" r="5.5" fill="#E4E4E4"/>
<circle cx="566.056" cy="500.499" r="5.5" fill="#E4E4E4"/>
<circle cx="594.056" cy="500.499" r="5.5" fill="#E4E4E4"/>
<circle cx="622.056" cy="500.499" r="5.5" fill="#E4E4E4"/>
<circle cx="650.056" cy="500.499" r="5.5" fill="#E4E4E4"/>
<circle cx="6.05566" cy="533.499" r="5.5" fill="#E4E4E4"/>
<circle cx="34.0557" cy="533.499" r="5.5" fill="#E4E4E4"/>
<circle cx="62.0557" cy="533.499" r="5.5" fill="#E4E4E4"/>
<circle cx="90.0557" cy="533.499" r="5.5" fill="#E4E4E4"/>
<circle cx="118.056" cy="533.499" r="5.5" fill="#E4E4E4"/>
<circle cx="146.056" cy="533.499" r="5.5" fill="#E4E4E4"/>
<circle cx="174.056" cy="533.499" r="5.5" fill="#E4E4E4"/>
<circle cx="202.056" cy="533.499" r="5.5" fill="#E4E4E4"/>
<circle cx="230.056" cy="533.499" r="5.5" fill="#E4E4E4"/>
<circle cx="258.056" cy="533.499" r="5.5" fill="#E4E4E4"/>
<circle cx="286.056" cy="533.499" r="5.5" fill="#E4E4E4"/>
<circle cx="314.056" cy="533.499" r="5.5" fill="#E4E4E4"/>
<circle cx="342.056" cy="533.499" r="5.5" fill="#E4E4E4"/>
<circle cx="370.056" cy="533.499" r="5.5" fill="#E4E4E4"/>
<circle cx="398.056" cy="533.499" r="5.5" fill="#E4E4E4"/>
<circle cx="426.056" cy="533.499" r="5.5" fill="#E4E4E4"/>
<circle cx="454.056" cy="533.499" r="5.5" fill="#E4E4E4"/>
<circle cx="482.056" cy="533.499" r="5.5" fill="#E4E4E4"/>
<circle cx="510.056" cy="533.499" r="5.5" fill="#E4E4E4"/>
<circle cx="538.056" cy="533.499" r="5.5" fill="#E4E4E4"/>
<circle cx="566.056" cy="533.499" r="5.5" fill="#E4E4E4"/>
<circle cx="594.056" cy="533.499" r="5.5" fill="#E4E4E4"/>
<circle cx="622.056" cy="533.499" r="5.5" fill="#E4E4E4"/>
<circle cx="650.056" cy="533.499" r="5.5" fill="#E4E4E4"/>
<circle cx="5.5" cy="563.662" r="5.5" fill="#E4E4E4"/>
<circle cx="33.5" cy="563.662" r="5.5" fill="#E4E4E4"/>
<circle cx="61.5" cy="563.662" r="5.5" fill="#E4E4E4"/>
<circle cx="89.5" cy="563.662" r="5.5" fill="#E4E4E4"/>
<circle cx="117.5" cy="563.662" r="5.5" fill="#E4E4E4"/>
<circle cx="145.5" cy="563.662" r="5.5" fill="#E4E4E4"/>
<circle cx="173.5" cy="563.662" r="5.5" fill="#E4E4E4"/>
<circle cx="201.5" cy="563.662" r="5.5" fill="#E4E4E4"/>
<circle cx="229.5" cy="563.662" r="5.5" fill="#E4E4E4"/>
<circle cx="257.5" cy="563.662" r="5.5" fill="#E4E4E4"/>
<circle cx="285.5" cy="563.662" r="5.5" fill="#E4E4E4"/>
<circle cx="313.5" cy="563.662" r="5.5" fill="#E4E4E4"/>
<circle cx="341.5" cy="563.662" r="5.5" fill="#E4E4E4"/>
<circle cx="369.5" cy="563.662" r="5.5" fill="#E4E4E4"/>
<circle cx="397.5" cy="563.662" r="5.5" fill="#E4E4E4"/>
<circle cx="425.5" cy="563.662" r="5.5" fill="#E4E4E4"/>
<circle cx="453.5" cy="563.662" r="5.5" fill="#E4E4E4"/>
<circle cx="481.5" cy="563.662" r="5.5" fill="#E4E4E4"/>
<circle cx="509.5" cy="563.662" r="5.5" fill="#E4E4E4"/>
<circle cx="537.5" cy="563.662" r="5.5" fill="#E4E4E4"/>
<circle cx="565.5" cy="563.662" r="5.5" fill="#E4E4E4"/>
<circle cx="593.5" cy="563.662" r="5.5" fill="#E4E4E4"/>
<circle cx="621.5" cy="563.662" r="5.5" fill="#E4E4E4"/>
<circle cx="649.5" cy="563.662" r="5.5" fill="#E4E4E4"/>
<circle cx="5.5" cy="596.662" r="5.5" fill="#E4E4E4"/>
<circle cx="33.5" cy="596.662" r="5.5" fill="#E4E4E4"/>
<circle cx="61.5" cy="596.662" r="5.5" fill="#E4E4E4"/>
<circle cx="89.5" cy="596.662" r="5.5" fill="#E4E4E4"/>
<circle cx="117.5" cy="596.662" r="5.5" fill="#E4E4E4"/>
<circle cx="145.5" cy="596.662" r="5.5" fill="#E4E4E4"/>
<circle cx="229.5" cy="596.662" r="5.5" fill="#E4E4E4"/>
<circle cx="257.5" cy="596.662" r="5.5" fill="#E4E4E4"/>
<circle cx="285.5" cy="596.662" r="5.5" fill="#E4E4E4"/>
<circle cx="313.5" cy="596.662" r="5.5" fill="#E4E4E4"/>
<circle cx="341.5" cy="596.662" r="5.5" fill="#E4E4E4"/>
<circle cx="369.5" cy="596.662" r="5.5" fill="#E4E4E4"/>
<circle cx="397.5" cy="596.662" r="5.5" fill="#E4E4E4"/>
<circle cx="425.5" cy="596.662" r="5.5" fill="#E4E4E4"/>
<circle cx="453.5" cy="596.662" r="5.5" fill="#E4E4E4"/>
<circle cx="481.5" cy="596.662" r="5.5" fill="#E4E4E4"/>
<circle cx="509.5" cy="596.662" r="5.5" fill="#E4E4E4"/>
<circle cx="537.5" cy="596.662" r="5.5" fill="#E4E4E4"/>
<circle cx="621.5" cy="596.662" r="5.5" fill="#E4E4E4"/>
<circle cx="649.5" cy="596.662" r="5.5" fill="#E4E4E4"/>
<circle cx="33.5" cy="629.662" r="5.5" fill="#E4E4E4"/>
<circle cx="61.5" cy="629.662" r="5.5" fill="#E4E4E4"/>
<circle cx="89.5" cy="629.662" r="5.5" fill="#E4E4E4"/>
<circle cx="285.5" cy="629.662" r="5.5" fill="#E4E4E4"/>
<circle cx="313.5" cy="629.662" r="5.5" fill="#E4E4E4"/>
<circle cx="341.5" cy="629.662" r="5.5" fill="#E4E4E4"/>
<circle cx="369.5" cy="629.662" r="5.5" fill="#E4E4E4"/>
<circle cx="397.5" cy="629.662" r="5.5" fill="#E4E4E4"/>
<circle cx="425.5" cy="629.662" r="5.5" fill="#E4E4E4"/>
<circle cx="453.5" cy="629.662" r="5.5" fill="#E4E4E4"/>
<circle cx="481.5" cy="629.662" r="5.5" fill="#E4E4E4"/>
<circle cx="313.5" cy="662.662" r="5.5" fill="#E4E4E4"/>
<circle cx="341.5" cy="662.662" r="5.5" fill="#E4E4E4"/>
<circle cx="369.5" cy="662.662" r="5.5" fill="#E4E4E4"/>
<circle cx="397.5" cy="662.662" r="5.5" fill="#E4E4E4"/>
<circle cx="425.5" cy="662.662" r="5.5" fill="#E4E4E4"/>
<circle cx="453.5" cy="662.662" r="5.5" fill="#E4E4E4"/>
<circle cx="313.5" cy="695.662" r="5.5" fill="#E4E4E4"/>
<circle cx="341.5" cy="695.662" r="5.5" fill="#E4E4E4"/>
<circle cx="369.5" cy="695.662" r="5.5" fill="#E4E4E4"/>
<circle cx="397.5" cy="695.662" r="5.5" fill="#E4E4E4"/>
<circle cx="425.5" cy="695.662" r="5.5" fill="#E4E4E4"/>
<circle cx="453.5" cy="695.662" r="5.5" fill="#E4E4E4"/>
<circle cx="313.5" cy="728.662" r="5.5" fill="#E4E4E4"/>
<circle cx="341.5" cy="728.662" r="5.5" fill="#E4E4E4"/>
<circle cx="369.5" cy="728.662" r="5.5" fill="#E4E4E4"/>
<circle cx="397.5" cy="728.662" r="5.5" fill="#E4E4E4"/>
<circle cx="425.5" cy="728.662" r="5.5" fill="#E4E4E4"/>
<circle cx="453.5" cy="728.662" r="5.5" fill="#E4E4E4"/>
<circle cx="313.5" cy="761.662" r="5.5" fill="#E4E4E4"/>
<circle cx="341.5" cy="761.662" r="5.5" fill="#E4E4E4"/>
<circle cx="369.5" cy="761.662" r="5.5" fill="#E4E4E4"/>
<circle cx="397.5" cy="761.662" r="5.5" fill="#E4E4E4"/>
<circle cx="425.5" cy="761.662" r="5.5" fill="#E4E4E4"/>
<circle cx="453.5" cy="761.662" r="5.5" fill="#E4E4E4"/>
<circle cx="33.5" cy="794.662" r="5.5" fill="#E4E4E4"/>
<circle cx="61.5" cy="794.662" r="5.5" fill="#E4E4E4"/>
<circle cx="89.5" cy="794.662" r="5.5" fill="#E4E4E4"/>
<circle cx="285.5" cy="794.662" r="5.5" fill="#E4E4E4"/>
<circle cx="313.5" cy="794.662" r="5.5" fill="#E4E4E4"/>
<circle cx="341.5" cy="794.662" r="5.5" fill="#E4E4E4"/>
<circle cx="369.5" cy="794.662" r="5.5" fill="#E4E4E4"/>
<circle cx="397.5" cy="794.662" r="5.5" fill="#E4E4E4"/>
<circle cx="425.5" cy="794.662" r="5.5" fill="#E4E4E4"/>
<circle cx="453.5" cy="794.662" r="5.5" fill="#E4E4E4"/>
<circle cx="481.5" cy="794.662" r="5.5" fill="#E4E4E4"/>
<circle cx="5.5" cy="827.662" r="5.5" fill="#E4E4E4"/>
<circle cx="33.5" cy="827.662" r="5.5" fill="#E4E4E4"/>
<circle cx="61.5" cy="827.662" r="5.5" fill="#E4E4E4"/>
<circle cx="89.5" cy="827.662" r="5.5" fill="#E4E4E4"/>
<circle cx="117.5" cy="827.662" r="5.5" fill="#E4E4E4"/>
<circle cx="145.5" cy="827.662" r="5.5" fill="#E4E4E4"/>
<circle cx="229.5" cy="827.662" r="5.5" fill="#E4E4E4"/>
<circle cx="257.5" cy="827.662" r="5.5" fill="#E4E4E4"/>
<circle cx="285.5" cy="827.662" r="5.5" fill="#E4E4E4"/>
<circle cx="313.5" cy="827.662" r="5.5" fill="#E4E4E4"/>
<circle cx="341.5" cy="827.662" r="5.5" fill="#E4E4E4"/>
<circle cx="369.5" cy="827.662" r="5.5" fill="#E4E4E4"/>
<circle cx="397.5" cy="827.662" r="5.5" fill="#E4E4E4"/>
<circle cx="425.5" cy="827.662" r="5.5" fill="#E4E4E4"/>
<circle cx="453.5" cy="827.662" r="5.5" fill="#E4E4E4"/>
<circle cx="481.5" cy="827.662" r="5.5" fill="#E4E4E4"/>
<circle cx="509.5" cy="827.662" r="5.5" fill="#E4E4E4"/>
<circle cx="537.5" cy="827.662" r="5.5" fill="#E4E4E4"/>
<circle cx="621.5" cy="827.662" r="5.5" fill="#E4E4E4"/>
<circle cx="649.5" cy="827.662" r="5.5" fill="#E4E4E4"/>
<circle cx="5.5" cy="860.662" r="5.5" fill="#E4E4E4"/>
<circle cx="33.5" cy="860.662" r="5.5" fill="#E4E4E4"/>
<circle cx="61.5" cy="860.662" r="5.5" fill="#E4E4E4"/>
<circle cx="89.5" cy="860.662" r="5.5" fill="#E4E4E4"/>
<circle cx="117.5" cy="860.662" r="5.5" fill="#E4E4E4"/>
<circle cx="145.5" cy="860.662" r="5.5" fill="#E4E4E4"/>
<circle cx="173.5" cy="860.662" r="5.5" fill="#E4E4E4"/>
<circle cx="201.5" cy="860.662" r="5.5" fill="#E4E4E4"/>
<circle cx="229.5" cy="860.662" r="5.5" fill="#E4E4E4"/>
<circle cx="257.5" cy="860.662" r="5.5" fill="#E4E4E4"/>
<circle cx="285.5" cy="860.662" r="5.5" fill="#E4E4E4"/>
<circle cx="313.5" cy="860.662" r="5.5" fill="#E4E4E4"/>
<circle cx="341.5" cy="860.662" r="5.5" fill="#E4E4E4"/>
<circle cx="369.5" cy="860.662" r="5.5" fill="#E4E4E4"/>
<circle cx="397.5" cy="860.662" r="5.5" fill="#E4E4E4"/>
<circle cx="425.5" cy="860.662" r="5.5" fill="#E4E4E4"/>
<circle cx="453.5" cy="860.662" r="5.5" fill="#E4E4E4"/>
<circle cx="481.5" cy="860.662" r="5.5" fill="#E4E4E4"/>
<circle cx="509.5" cy="860.662" r="5.5" fill="#E4E4E4"/>
<circle cx="537.5" cy="860.662" r="5.5" fill="#E4E4E4"/>
<circle cx="565.5" cy="860.662" r="5.5" fill="#E4E4E4"/>
<circle cx="593.5" cy="860.662" r="5.5" fill="#E4E4E4"/>
<circle cx="621.5" cy="860.662" r="5.5" fill="#E4E4E4"/>
<circle cx="649.5" cy="860.662" r="5.5" fill="#E4E4E4"/>
<circle cx="5.5" cy="893.662" r="5.5" fill="#E4E4E4"/>
<circle cx="33.5" cy="893.662" r="5.5" fill="#E4E4E4"/>
<circle cx="61.5" cy="893.662" r="5.5" fill="#E4E4E4"/>
<circle cx="89.5" cy="893.662" r="5.5" fill="#E4E4E4"/>
<circle cx="117.5" cy="893.662" r="5.5" fill="#E4E4E4"/>
<circle cx="145.5" cy="893.662" r="5.5" fill="#E4E4E4"/>
<circle cx="173.5" cy="893.662" r="5.5" fill="#E4E4E4"/>
<circle cx="201.5" cy="893.662" r="5.5" fill="#E4E4E4"/>
<circle cx="229.5" cy="893.662" r="5.5" fill="#E4E4E4"/>
<circle cx="257.5" cy="893.662" r="5.5" fill="#E4E4E4"/>
<circle cx="285.5" cy="893.662" r="5.5" fill="#E4E4E4"/>
<circle cx="313.5" cy="893.662" r="5.5" fill="#E4E4E4"/>
<circle cx="341.5" cy="893.662" r="5.5" fill="#E4E4E4"/>
<circle cx="369.5" cy="893.662" r="5.5" fill="#E4E4E4"/>
<circle cx="397.5" cy="893.662" r="5.5" fill="#E4E4E4"/>
<circle cx="425.5" cy="893.662" r="5.5" fill="#E4E4E4"/>
<circle cx="453.5" cy="893.662" r="5.5" fill="#E4E4E4"/>
<circle cx="481.5" cy="893.662" r="5.5" fill="#E4E4E4"/>
<circle cx="509.5" cy="893.662" r="5.5" fill="#E4E4E4"/>
<circle cx="537.5" cy="893.662" r="5.5" fill="#E4E4E4"/>
<circle cx="565.5" cy="893.662" r="5.5" fill="#E4E4E4"/>
<circle cx="593.5" cy="893.662" r="5.5" fill="#E4E4E4"/>
<circle cx="621.5" cy="893.662" r="5.5" fill="#E4E4E4"/>
<circle cx="649.5" cy="893.662" r="5.5" fill="#E4E4E4"/>
<circle cx="5.5" cy="926.662" r="5.5" fill="#E4E4E4"/>
<circle cx="33.5" cy="926.662" r="5.5" fill="#E4E4E4"/>
<circle cx="61.5" cy="926.662" r="5.5" fill="#E4E4E4"/>
<circle cx="89.5" cy="926.662" r="5.5" fill="#E4E4E4"/>
<circle cx="117.5" cy="926.662" r="5.5" fill="#E4E4E4"/>
<circle cx="145.5" cy="926.662" r="5.5" fill="#E4E4E4"/>
<circle cx="173.5" cy="926.662" r="5.5" fill="#E4E4E4"/>
<circle cx="201.5" cy="926.662" r="5.5" fill="#E4E4E4"/>
<circle cx="229.5" cy="926.662" r="5.5" fill="#E4E4E4"/>
<circle cx="257.5" cy="926.662" r="5.5" fill="#E4E4E4"/>
<circle cx="285.5" cy="926.662" r="5.5" fill="#E4E4E4"/>
<circle cx="313.5" cy="926.662" r="5.5" fill="#E4E4E4"/>
<circle cx="341.5" cy="926.662" r="5.5" fill="#E4E4E4"/>
<circle cx="369.5" cy="926.662" r="5.5" fill="#E4E4E4"/>
<circle cx="397.5" cy="926.662" r="5.5" fill="#E4E4E4"/>
<circle cx="425.5" cy="926.662" r="5.5" fill="#E4E4E4"/>
<circle cx="453.5" cy="926.662" r="5.5" fill="#E4E4E4"/>
<circle cx="481.5" cy="926.662" r="5.5" fill="#E4E4E4"/>
<circle cx="509.5" cy="926.662" r="5.5" fill="#E4E4E4"/>
<circle cx="537.5" cy="926.662" r="5.5" fill="#E4E4E4"/>
<circle cx="565.5" cy="926.662" r="5.5" fill="#E4E4E4"/>
<circle cx="593.5" cy="926.662" r="5.5" fill="#E4E4E4"/>
<circle cx="621.5" cy="926.662" r="5.5" fill="#E4E4E4"/>
<circle cx="649.5" cy="926.662" r="5.5" fill="#E4E4E4"/>
<circle cx="5.5" cy="959.662" r="5.5" fill="#E4E4E4"/>
<circle cx="33.5" cy="959.662" r="5.5" fill="#E4E4E4"/>
<circle cx="61.5" cy="959.662" r="5.5" fill="#E4E4E4"/>
<circle cx="89.5" cy="959.662" r="5.5" fill="#E4E4E4"/>
<circle cx="117.5" cy="959.662" r="5.5" fill="#E4E4E4"/>
<circle cx="145.5" cy="959.662" r="5.5" fill="#E4E4E4"/>
<circle cx="173.5" cy="959.662" r="5.5" fill="#E4E4E4"/>
<circle cx="201.5" cy="959.662" r="5.5" fill="#E4E4E4"/>
<circle cx="229.5" cy="959.662" r="5.5" fill="#E4E4E4"/>
<circle cx="257.5" cy="959.662" r="5.5" fill="#E4E4E4"/>
<circle cx="285.5" cy="959.662" r="5.5" fill="#E4E4E4"/>
<circle cx="313.5" cy="959.662" r="5.5" fill="#E4E4E4"/>
<circle cx="341.5" cy="959.662" r="5.5" fill="#E4E4E4"/>
<circle cx="369.5" cy="959.662" r="5.5" fill="#E4E4E4"/>
<circle cx="397.5" cy="959.662" r="5.5" fill="#E4E4E4"/>
<circle cx="425.5" cy="959.662" r="5.5" fill="#E4E4E4"/>
<circle cx="453.5" cy="959.662" r="5.5" fill="#E4E4E4"/>
<circle cx="481.5" cy="959.662" r="5.5" fill="#E4E4E4"/>
<circle cx="509.5" cy="959.662" r="5.5" fill="#E4E4E4"/>
<circle cx="537.5" cy="959.662" r="5.5" fill="#E4E4E4"/>
<circle cx="565.5" cy="959.662" r="5.5" fill="#E4E4E4"/>
<circle cx="593.5" cy="959.662" r="5.5" fill="#E4E4E4"/>
<circle cx="621.5" cy="959.662" r="5.5" fill="#E4E4E4"/>
<circle cx="649.5" cy="959.662" r="5.5" fill="#E4E4E4"/>
<circle cx="5.5" cy="992.662" r="5.5" fill="#E4E4E4"/>
<circle cx="33.5" cy="992.662" r="5.5" fill="#E4E4E4"/>
<circle cx="61.5" cy="992.662" r="5.5" fill="#E4E4E4"/>
<circle cx="89.5" cy="992.662" r="5.5" fill="#E4E4E4"/>
<circle cx="117.5" cy="992.662" r="5.5" fill="#E4E4E4"/>
<circle cx="145.5" cy="992.662" r="5.5" fill="#E4E4E4"/>
<circle cx="173.5" cy="992.662" r="5.5" fill="#E4E4E4"/>
<circle cx="201.5" cy="992.662" r="5.5" fill="#E4E4E4"/>
<circle cx="229.5" cy="992.662" r="5.5" fill="#E4E4E4"/>
<circle cx="257.5" cy="992.662" r="5.5" fill="#E4E4E4"/>
<circle cx="285.5" cy="992.662" r="5.5" fill="#E4E4E4"/>
<circle cx="313.5" cy="992.662" r="5.5" fill="#E4E4E4"/>
<circle cx="341.5" cy="992.662" r="5.5" fill="#E4E4E4"/>
<circle cx="369.5" cy="992.662" r="5.5" fill="#E4E4E4"/>
<circle cx="397.5" cy="992.662" r="5.5" fill="#E4E4E4"/>
<circle cx="425.5" cy="992.662" r="5.5" fill="#E4E4E4"/>
<circle cx="453.5" cy="992.662" r="5.5" fill="#E4E4E4"/>
<circle cx="481.5" cy="992.662" r="5.5" fill="#E4E4E4"/>
<circle cx="509.5" cy="992.662" r="5.5" fill="#E4E4E4"/>
<circle cx="537.5" cy="992.662" r="5.5" fill="#E4E4E4"/>
<circle cx="565.5" cy="992.662" r="5.5" fill="#E4E4E4"/>
<circle cx="593.5" cy="992.662" r="5.5" fill="#E4E4E4"/>
<circle cx="621.5" cy="992.662" r="5.5" fill="#E4E4E4"/>
<circle cx="649.5" cy="992.662" r="5.5" fill="#E4E4E4"/>
<circle cx="5.5" cy="1025.66" r="5.5" fill="#E4E4E4"/>
<circle cx="33.5" cy="1025.66" r="5.5" fill="#E4E4E4"/>
<circle cx="61.5" cy="1025.66" r="5.5" fill="#E4E4E4"/>
<circle cx="89.5" cy="1025.66" r="5.5" fill="#E4E4E4"/>
<circle cx="117.5" cy="1025.66" r="5.5" fill="#E4E4E4"/>
<circle cx="145.5" cy="1025.66" r="5.5" fill="#E4E4E4"/>
<circle cx="173.5" cy="1025.66" r="5.5" fill="#E4E4E4"/>
<circle cx="201.5" cy="1025.66" r="5.5" fill="#E4E4E4"/>
<circle cx="229.5" cy="1025.66" r="5.5" fill="#E4E4E4"/>
<circle cx="257.5" cy="1025.66" r="5.5" fill="#E4E4E4"/>
<circle cx="285.5" cy="1025.66" r="5.5" fill="#E4E4E4"/>
<circle cx="313.5" cy="1025.66" r="5.5" fill="#E4E4E4"/>
<circle cx="341.5" cy="1025.66" r="5.5" fill="#E4E4E4"/>
<circle cx="369.5" cy="1025.66" r="5.5" fill="#E4E4E4"/>
<circle cx="397.5" cy="1025.66" r="5.5" fill="#E4E4E4"/>
<circle cx="425.5" cy="1025.66" r="5.5" fill="#E4E4E4"/>
<circle cx="453.5" cy="1025.66" r="5.5" fill="#E4E4E4"/>
<circle cx="481.5" cy="1025.66" r="5.5" fill="#E4E4E4"/>
<circle cx="509.5" cy="1025.66" r="5.5" fill="#E4E4E4"/>
<circle cx="537.5" cy="1025.66" r="5.5" fill="#E4E4E4"/>
<circle cx="565.5" cy="1025.66" r="5.5" fill="#E4E4E4"/>
<circle cx="593.5" cy="1025.66" r="5.5" fill="#E4E4E4"/>
<circle cx="621.5" cy="1025.66" r="5.5" fill="#E4E4E4"/>
<circle cx="649.5" cy="1025.66" r="5.5" fill="#E4E4E4"/>
<circle cx="5.5" cy="1058.66" r="5.5" fill="#E4E4E4"/>
<circle cx="33.5" cy="1058.66" r="5.5" fill="#E4E4E4"/>
<circle cx="61.5" cy="1058.66" r="5.5" fill="#E4E4E4"/>
<circle cx="89.5" cy="1058.66" r="5.5" fill="#E4E4E4"/>
<circle cx="117.5" cy="1058.66" r="5.5" fill="#E4E4E4"/>
<circle cx="145.5" cy="1058.66" r="5.5" fill="#E4E4E4"/>
<circle cx="173.5" cy="1058.66" r="5.5" fill="#E4E4E4"/>
<circle cx="201.5" cy="1058.66" r="5.5" fill="#E4E4E4"/>
<circle cx="229.5" cy="1058.66" r="5.5" fill="#E4E4E4"/>
<circle cx="257.5" cy="1058.66" r="5.5" fill="#E4E4E4"/>
<circle cx="285.5" cy="1058.66" r="5.5" fill="#E4E4E4"/>
<circle cx="313.5" cy="1058.66" r="5.5" fill="#E4E4E4"/>
<circle cx="341.5" cy="1058.66" r="5.5" fill="#E4E4E4"/>
<circle cx="369.5" cy="1058.66" r="5.5" fill="#E4E4E4"/>
<circle cx="397.5" cy="1058.66" r="5.5" fill="#E4E4E4"/>
<circle cx="425.5" cy="1058.66" r="5.5" fill="#E4E4E4"/>
<circle cx="453.5" cy="1058.66" r="5.5" fill="#E4E4E4"/>
<circle cx="481.5" cy="1058.66" r="5.5" fill="#E4E4E4"/>
<circle cx="509.5" cy="1058.66" r="5.5" fill="#E4E4E4"/>
<circle cx="537.5" cy="1058.66" r="5.5" fill="#E4E4E4"/>
<circle cx="565.5" cy="1058.66" r="5.5" fill="#E4E4E4"/>
<circle cx="593.5" cy="1058.66" r="5.5" fill="#E4E4E4"/>
<circle cx="621.5" cy="1058.66" r="5.5" fill="#E4E4E4"/>
<circle cx="649.5" cy="1058.66" r="5.5" fill="#E4E4E4"/>
<circle cx="5.5" cy="1091.66" r="5.5" fill="#E4E4E4"/>
<circle cx="33.5" cy="1091.66" r="5.5" fill="#E4E4E4"/>
<circle cx="61.5" cy="1091.66" r="5.5" fill="#E4E4E4"/>
<circle cx="89.5" cy="1091.66" r="5.5" fill="#E4E4E4"/>
<circle cx="117.5" cy="1091.66" r="5.5" fill="#E4E4E4"/>
<circle cx="145.5" cy="1091.66" r="5.5" fill="#E4E4E4"/>
<circle cx="173.5" cy="1091.66" r="5.5" fill="#E4E4E4"/>
<circle cx="201.5" cy="1091.66" r="5.5" fill="#E4E4E4"/>
<circle cx="229.5" cy="1091.66" r="5.5" fill="#E4E4E4"/>
<circle cx="257.5" cy="1091.66" r="5.5" fill="#E4E4E4"/>
<circle cx="285.5" cy="1091.66" r="5.5" fill="#E4E4E4"/>
<circle cx="313.5" cy="1091.66" r="5.5" fill="#E4E4E4"/>
<circle cx="341.5" cy="1091.66" r="5.5" fill="#E4E4E4"/>
<circle cx="369.5" cy="1091.66" r="5.5" fill="#E4E4E4"/>
<circle cx="397.5" cy="1091.66" r="5.5" fill="#E4E4E4"/>
<circle cx="425.5" cy="1091.66" r="5.5" fill="#E4E4E4"/>
<circle cx="453.5" cy="1091.66" r="5.5" fill="#E4E4E4"/>
<circle cx="481.5" cy="1091.66" r="5.5" fill="#E4E4E4"/>
<circle cx="509.5" cy="1091.66" r="5.5" fill="#E4E4E4"/>
<circle cx="537.5" cy="1091.66" r="5.5" fill="#E4E4E4"/>
<circle cx="565.5" cy="1091.66" r="5.5" fill="#E4E4E4"/>
<circle cx="593.5" cy="1091.66" r="5.5" fill="#E4E4E4"/>
<circle cx="621.5" cy="1091.66" r="5.5" fill="#E4E4E4"/>
<circle cx="649.5" cy="1091.66" r="5.5" fill="#E4E4E4"/>
<circle cx="677.241" cy="335.5" r="5.5" fill="#E4E4E4"/>
<circle cx="705.241" cy="335.5" r="5.5" fill="#E4E4E4"/>
<circle cx="733.241" cy="335.5" r="5.5" fill="#E4E4E4"/>
<circle cx="761.241" cy="335.5" r="5.5" fill="#E4E4E4"/>
<circle cx="677.241" cy="368.5" r="5.5" fill="#E4E4E4"/>
<circle cx="705.241" cy="368.5" r="5.5" fill="#E4E4E4"/>
<circle cx="733.241" cy="368.5" r="5.5" fill="#E4E4E4"/>
<circle cx="761.241" cy="368.5" r="5.5" fill="#E4E4E4"/>
<circle cx="677.241" cy="401.5" r="5.5" fill="#E4E4E4"/>
<circle cx="705.241" cy="401.5" r="5.5" fill="#E4E4E4"/>
<circle cx="733.241" cy="401.5" r="5.5" fill="#E4E4E4"/>
<circle cx="761.241" cy="401.5" r="5.5" fill="#E4E4E4"/>
<circle cx="677.241" cy="434.5" r="5.5" fill="#E4E4E4"/>
<circle cx="705.241" cy="434.5" r="5.5" fill="#E4E4E4"/>
<circle cx="733.241" cy="434.5" r="5.5" fill="#E4E4E4"/>
<circle cx="761.241" cy="434.5" r="5.5" fill="#E4E4E4"/>
<circle cx="677.241" cy="467.5" r="5.5" fill="#E4E4E4"/>
<circle cx="705.241" cy="467.5" r="5.5" fill="#E4E4E4"/>
<circle cx="733.241" cy="467.5" r="5.5" fill="#E4E4E4"/>
<circle cx="761.241" cy="467.5" r="5.5" fill="#E4E4E4"/>
<circle cx="677.241" cy="500.5" r="5.5" fill="#E4E4E4"/>
<circle cx="705.241" cy="500.5" r="5.5" fill="#E4E4E4"/>
<circle cx="733.241" cy="500.5" r="5.5" fill="#E4E4E4"/>
<circle cx="761.241" cy="500.5" r="5.5" fill="#E4E4E4"/>
<circle cx="677.241" cy="533.5" r="5.5" fill="#E4E4E4"/>
<circle cx="705.241" cy="533.5" r="5.5" fill="#E4E4E4"/>
<circle cx="733.241" cy="533.5" r="5.5" fill="#E4E4E4"/>
<circle cx="761.241" cy="533.5" r="5.5" fill="#E4E4E4"/>
<circle cx="676.686" cy="563.663" r="5.5" fill="#E4E4E4"/>
<circle cx="704.686" cy="563.663" r="5.5" fill="#E4E4E4"/>
<circle cx="732.686" cy="563.663" r="5.5" fill="#E4E4E4"/>
<circle cx="760.686" cy="563.663" r="5.5" fill="#E4E4E4"/>
<circle cx="676.686" cy="596.663" r="5.5" fill="#E4E4E4"/>
<circle cx="704.686" cy="596.663" r="5.5" fill="#E4E4E4"/>
<circle cx="732.686" cy="596.663" r="5.5" fill="#E4E4E4"/>
<circle cx="760.686" cy="596.663" r="5.5" fill="#E4E4E4"/>
<circle cx="676.686" cy="629.663" r="5.5" fill="#E4E4E4"/>
<circle cx="704.686" cy="629.663" r="5.5" fill="#E4E4E4"/>
<circle cx="732.686" cy="629.663" r="5.5" fill="#E4E4E4"/>
<circle cx="676.686" cy="794.663" r="5.5" fill="#E4E4E4"/>
<circle cx="704.686" cy="794.663" r="5.5" fill="#E4E4E4"/>
<circle cx="732.686" cy="794.663" r="5.5" fill="#E4E4E4"/>
<circle cx="676.686" cy="827.663" r="5.5" fill="#E4E4E4"/>
<circle cx="704.686" cy="827.663" r="5.5" fill="#E4E4E4"/>
<circle cx="732.686" cy="827.663" r="5.5" fill="#E4E4E4"/>
<circle cx="760.686" cy="827.663" r="5.5" fill="#E4E4E4"/>
<circle cx="676.686" cy="860.663" r="5.5" fill="#E4E4E4"/>
<circle cx="704.686" cy="860.663" r="5.5" fill="#E4E4E4"/>
<circle cx="732.686" cy="860.663" r="5.5" fill="#E4E4E4"/>
<circle cx="760.686" cy="860.663" r="5.5" fill="#E4E4E4"/>
<circle cx="676.686" cy="893.663" r="5.5" fill="#E4E4E4"/>
<circle cx="704.686" cy="893.663" r="5.5" fill="#E4E4E4"/>
<circle cx="732.686" cy="893.663" r="5.5" fill="#E4E4E4"/>
<circle cx="760.686" cy="893.663" r="5.5" fill="#E4E4E4"/>
<circle cx="676.686" cy="926.663" r="5.5" fill="#E4E4E4"/>
<circle cx="704.686" cy="926.663" r="5.5" fill="#E4E4E4"/>
<circle cx="732.686" cy="926.663" r="5.5" fill="#E4E4E4"/>
<circle cx="760.686" cy="926.663" r="5.5" fill="#E4E4E4"/>
<circle cx="676.686" cy="959.663" r="5.5" fill="#E4E4E4"/>
<circle cx="704.686" cy="959.663" r="5.5" fill="#E4E4E4"/>
<circle cx="732.686" cy="959.663" r="5.5" fill="#E4E4E4"/>
<circle cx="760.686" cy="959.663" r="5.5" fill="#E4E4E4"/>
<circle cx="676.686" cy="992.663" r="5.5" fill="#E4E4E4"/>
<circle cx="704.686" cy="992.663" r="5.5" fill="#E4E4E4"/>
<circle cx="732.686" cy="992.663" r="5.5" fill="#E4E4E4"/>
<circle cx="760.686" cy="992.663" r="5.5" fill="#E4E4E4"/>
<circle cx="676.686" cy="1025.66" r="5.5" fill="#E4E4E4"/>
<circle cx="704.686" cy="1025.66" r="5.5" fill="#E4E4E4"/>
<circle cx="732.686" cy="1025.66" r="5.5" fill="#E4E4E4"/>
<circle cx="760.686" cy="1025.66" r="5.5" fill="#E4E4E4"/>
<circle cx="676.686" cy="1058.66" r="5.5" fill="#E4E4E4"/>
<circle cx="704.686" cy="1058.66" r="5.5" fill="#E4E4E4"/>
<circle cx="732.686" cy="1058.66" r="5.5" fill="#E4E4E4"/>
<circle cx="760.686" cy="1058.66" r="5.5" fill="#E4E4E4"/>
<circle cx="676.686" cy="1091.66" r="5.5" fill="#E4E4E4"/>
<circle cx="704.686" cy="1091.66" r="5.5" fill="#E4E4E4"/>
<circle cx="732.686" cy="1091.66" r="5.5" fill="#E4E4E4"/>
<circle cx="760.686" cy="1091.66" r="5.5" fill="#E4E4E4"/>
</svg>
